<svg width="351" height="594" viewBox="0 0 351 594" fill="none" xmlns="http://www.w3.org/2000/svg">
  <path
    d="M689.51 333.926C641.582 519.358 451.013 630.468 263.864 582.096C76.7146 533.724 -36.1465 344.188 11.7817 158.755C59.71 -26.6773 250.278 -137.787 437.427 -89.4147C624.577 -41.0427 737.438 148.493 689.51 333.926Z"
    fill="url(#paint0_linear_7_1598)"
  />
  <path
    d="M689.51 333.926C641.582 519.358 451.013 630.468 263.864 582.096C76.7146 533.724 -36.1465 344.188 11.7817 158.755C59.71 -26.6773 250.278 -137.787 437.427 -89.4147C624.577 -41.0427 737.438 148.493 689.51 333.926Z"
    fill="url(#paint1_linear_7_1598)"
  />
  <defs>
    <linearGradient id="paint0_linear_7_1598" x1="349.66" y1="133.643" x2="696.617" y2="728.723" gradientUnits="userSpaceOnUse">
      <stop stop-color="#FAA3BD" stop-opacity="0.996875" />
      <stop offset="1" stop-color="white" stop-opacity="0" />
    </linearGradient>
    <linearGradient id="paint1_linear_7_1598" x1="349.66" y1="133.643" x2="696.617" y2="728.723" gradientUnits="userSpaceOnUse">
      <stop stop-color="#FFF0BB" stop-opacity="0.996875" />
      <stop offset="1" stop-color="white" stop-opacity="0" />
    </linearGradient>
  </defs>
</svg>
