<svg width="197" height="202" viewBox="0 0 197 202" fill="none" xmlns="http://www.w3.org/2000/svg">
<path fill-rule="evenodd" clip-rule="evenodd" d="M169.542 73.3399C170.968 75.6468 172.502 77.8926 173.785 80.2821C174.791 82.1572 175.941 84.0099 176.485 86.0673C177.308 89.1847 177.445 92.4906 177.256 95.7093C177.102 98.3269 176.396 100.891 175.713 103.423C174.368 108.408 172.986 113.45 170.699 118.079C169.262 120.988 167.416 123.718 165.3 126.178C164.053 127.627 162.396 128.671 161.057 130.035C159.143 131.986 157.752 134.449 155.658 136.206C151.283 139.876 146.022 142.354 141.002 145.076C137.363 147.05 133.639 148.885 129.817 150.476C127.678 151.367 125.433 151.982 123.261 152.79C120.285 153.897 116.934 154.361 114.39 156.261C112.041 158.015 110.931 161.006 108.991 163.203C108.63 163.612 107.973 163.833 107.834 164.36C107.457 165.777 108.975 167.137 108.991 168.603C109.002 169.663 108.349 170.636 108.219 171.688C107.842 174.751 108.219 180.945 108.219 180.945L109.376 189.815L110.148 194.058L120.175 195.6L129.817 194.829L134.06 195.6L139.459 193.672L144.087 194.829L147.173 196.372V199.457L142.93 197.915L134.831 201H125.96H115.933L103.977 198.3L101.277 196.372L102.434 193.286L102.048 188.273L101.277 176.702C101.277 176.702 100.19 173.894 99.7342 172.46C99.2905 171.063 98.3923 169.671 98.5772 168.217C98.7079 167.189 100.068 166.553 100.12 165.517C100.184 164.253 99.4751 162.939 98.5772 162.046C95.3928 158.88 90.5635 157.843 86.2354 156.647C80.3642 155.024 74.1493 155.116 68.1085 154.333C63.2219 153.699 58.2585 153.492 53.4526 152.404C48.1788 151.211 38.0254 147.39 38.0254 147.39L27.2264 145.462L20.6698 145.848L14.4989 148.162L9.87077 147.776L3.69988 146.619L2.92852 145.076L14.8846 137.363L19.1271 134.277L2.92852 136.977H1.77148V135.82L13.7276 129.264L23.3696 125.792L21.4412 125.407L25.6836 119.236C25.6836 119.236 45.5131 111.931 54.224 106.123C56.1164 104.861 57.4504 102.901 59.2378 101.495C61.4234 99.7747 63.6817 98.0883 66.1801 96.8664C72.3885 93.8299 79.2932 92.4953 85.8497 90.3098C90.8636 88.6385 95.7656 86.5843 100.891 85.296C104.56 84.3738 108.307 83.6901 112.076 83.3676C116.943 82.951 121.847 83.3676 126.732 83.3676H134.445C136.374 83.3676 138.314 83.578 140.231 83.3676C141.409 83.2383 142.724 83.2662 143.702 82.5962C144.467 82.0722 144.927 81.1532 145.244 80.2821C146.041 78.0944 146.172 75.663 146.016 73.3399C145.838 70.6955 145.423 67.1844 145.167 64.5464C144.447 57.1148 144.654 50.6999 145.244 43.2569C145.531 39.6479 145.903 36.0435 146.402 32.4578C147.031 27.9361 147.845 23.4404 148.716 18.959C149.293 15.9886 150.238 13.8044 151.724 11.1683C153.376 8.23705 155.193 5.04353 157.972 3.14613C159.967 1.78405 162.132 1.44368 164.528 1.14059C167.255 0.795736 169.919 1.13733 172.628 1.60341C174.294 1.89021 175.164 2.50311 176.562 3.45467C178.038 4.45972 179.458 5.45086 180.341 7.00293C180.996 8.15316 181.415 9.46305 182.27 10.4741C184.395 12.9891 187.23 14.8391 189.983 16.6449C191.686 17.7614 194.056 17.9552 195.383 19.499C196.146 20.3869 196.54 22.8158 196.54 22.8158C196.54 22.8158 189.359 21.7766 185.741 21.6588C182.654 21.5583 179.538 21.5845 176.485 22.0444C173.987 22.4206 171.626 23.4433 169.157 23.9728C168.392 24.1368 167.437 23.8505 166.843 24.3585C164.679 26.2072 164.722 29.6715 164.143 32.4578C163.25 36.7541 163.179 41.1872 162.986 45.5709C162.85 48.6534 162.656 51.7595 162.986 54.8273C163.309 57.8359 164.265 60.7425 164.914 63.6979C165.169 64.8555 165.236 66.0721 165.686 67.169C166.605 69.4138 168.267 71.2765 169.542 73.3399Z" fill="black" stroke="black" stroke-width="0.264583"/>
<path fill-rule="evenodd" clip-rule="evenodd" d="M175.713 20.8874L173.784 17.802L171.856 15.1022L170.313 12.4025L167.614 7.38861L163.757 4.68886L161.057 5.46022L160.286 8.54565L162.6 13.1738L163.757 19.3447L165.299 24.7442L175.713 20.8874Z" fill="white" stroke="black" stroke-width="0.264583"/>
<path fill-rule="evenodd" clip-rule="evenodd" d="M34.9396 138.905L14.1129 148.933C14.1129 148.933 6.39928 149.705 4.47088 147.39C2.54248 145.076 2.54248 145.076 2.54248 145.076L20.6694 133.12L16.427 138.52L21.4408 138.905L23.7549 138.52L34.9396 138.905Z" stroke="black" stroke-width="0.264583"/>
<path fill-rule="evenodd" clip-rule="evenodd" d="M47.6673 137.363L20.6697 134.663L3.31408 138.134L1 137.363V135.434L21.0554 126.178L25.6835 132.349L47.6673 137.363Z" stroke="black" stroke-width="0.264583"/>
<path fill-rule="evenodd" clip-rule="evenodd" d="M62.7089 99.5661C62.7089 99.5661 62.4297 104.653 63.8659 106.508C64.6411 107.51 67.3371 108.051 67.3371 108.051C67.3371 108.051 66.029 111.436 66.9514 112.679C68.0481 114.158 72.3509 113.836 72.3509 113.836C72.3509 113.836 71.9289 117.454 73.1223 118.464C74.2994 119.462 77.7504 118.464 77.7504 118.464C77.7504 118.464 79.1192 121.49 80.4502 122.321C82.5476 123.631 87.7781 123.478 87.7781 123.478L91.2492 125.792L84.307 129.264C84.307 129.264 80.1801 130.536 78.9075 129.264C78.0893 128.445 78.9075 125.792 78.9075 125.792C78.9075 125.792 75.7465 129.013 74.2793 128.106C72.8576 127.228 74.2793 123.093 74.2793 123.093C74.2793 123.093 71.7836 126.035 70.4225 125.407C69.0026 124.751 69.6511 120.779 69.6511 120.779C69.6511 120.779 64.602 122.752 63.0946 121.164C62.293 120.32 63.4803 117.693 63.4803 117.693C63.4803 117.693 58.6021 118.301 58.0807 116.536C57.7718 115.49 60.3948 114.222 60.3948 114.222C60.3948 114.222 55.1421 112.885 54.9953 110.751C54.914 109.568 57.6951 108.437 57.6951 108.437L53.0669 106.894L62.7089 99.5661Z" fill="#6C6D68" stroke="#CCCCCC" stroke-width="0.264583"/>
<path fill-rule="evenodd" clip-rule="evenodd" d="M68.9552 95.2195C68.9552 95.2195 68.6732 100.533 70.1238 102.47C70.9067 103.515 73.6296 104.081 73.6296 104.081C73.6296 104.081 72.3084 107.616 73.24 108.915C74.3477 110.459 78.6935 110.123 78.6935 110.123C78.6935 110.123 78.2673 113.901 79.4726 114.957C80.6615 115.998 84.147 114.957 84.147 114.957C84.147 114.957 85.5295 118.116 86.8737 118.985C88.9921 120.353 94.2749 120.193 94.2749 120.193L97.7807 122.61L90.7691 126.235C90.7691 126.235 86.601 127.564 85.3156 126.235C84.4893 125.38 85.3156 122.61 85.3156 122.61C85.3156 122.61 82.1231 125.974 80.6412 125.026C79.2053 124.109 80.6412 119.79 80.6412 119.79C80.6412 119.79 78.1206 122.863 76.7458 122.207C75.3117 121.522 75.9668 117.373 75.9668 117.373C75.9668 117.373 70.8671 119.434 69.3447 117.776C68.5351 116.894 69.7342 114.151 69.7342 114.151C69.7342 114.151 64.8073 114.786 64.2807 112.943C63.9687 111.85 66.6179 110.526 66.6179 110.526C66.6179 110.526 61.3127 109.13 61.1645 106.901C61.0823 105.666 63.8912 104.484 63.8912 104.484L59.2168 102.873L68.9552 95.2195Z" fill="#6C6D68" stroke="#CCCCCC" stroke-width="0.271738"/>
<path fill-rule="evenodd" clip-rule="evenodd" d="M77.5456 93.1742C77.5456 93.1742 76.5818 96.7146 78.0324 98.6518C78.8153 99.6974 81.5382 100.263 81.5382 100.263C81.5382 100.263 80.2171 103.798 81.1487 105.097C82.2563 106.641 86.6021 106.305 86.6021 106.305C86.6021 106.305 86.1759 110.083 87.3812 111.139C88.5701 112.18 92.0556 111.139 92.0556 111.139C92.0556 111.139 93.4381 114.298 94.7824 115.166C96.9007 116.535 102.184 116.375 102.184 116.375L105.689 118.792L98.6777 122.417C98.6777 122.417 94.5096 123.746 93.2242 122.417C92.3979 121.562 93.2242 118.792 93.2242 118.792C93.2242 118.792 90.0317 122.155 88.5498 121.208C87.1139 120.291 88.5498 115.972 88.5498 115.972C88.5498 115.972 86.0292 119.045 84.6545 118.389C83.2204 117.704 83.8754 113.555 83.8754 113.555C83.8754 113.555 78.7758 115.616 77.2533 113.958C76.4438 113.076 77.6429 110.333 77.6429 110.333C77.6429 110.333 72.7159 110.968 72.1894 109.125C71.8773 108.032 74.5266 106.708 74.5266 106.708C74.5266 106.708 69.2213 105.312 69.0731 103.083C68.991 101.848 71.7998 100.666 71.7998 100.666L68.2163 95.9184L77.5456 93.1742Z" fill="#6C6D68" stroke="#CCCCCC" stroke-width="0.271738"/>
<path fill-rule="evenodd" clip-rule="evenodd" d="M86.8183 89.9016C86.8183 89.9016 84.3546 93.7147 85.8052 95.6519C86.5881 96.6975 89.311 97.2631 89.311 97.2631C89.311 97.2631 87.9899 100.798 88.9215 102.097C90.0291 103.641 94.3749 103.305 94.3749 103.305C94.3749 103.305 93.9487 107.083 95.154 108.139C96.3429 109.18 99.8284 108.139 99.8284 108.139C99.8284 108.139 101.211 111.298 102.555 112.167C104.673 113.535 109.956 113.375 109.956 113.375L113.462 115.792L106.451 119.417C106.451 119.417 102.282 120.746 100.997 119.417C100.171 118.562 100.997 115.792 100.997 115.792C100.997 115.792 97.8045 119.156 96.3226 118.209C94.8867 117.291 96.3226 112.972 96.3226 112.972C96.3226 112.972 93.802 116.045 92.4273 115.389C90.9932 114.704 91.6482 110.555 91.6482 110.555C91.6482 110.555 86.5485 112.616 85.0261 110.958C84.2165 110.076 85.4156 107.333 85.4156 107.333C85.4156 107.333 80.4887 107.968 79.9622 106.125C79.6501 105.032 82.2994 103.708 82.2994 103.708C82.2994 103.708 76.9941 102.312 76.8459 100.083C76.7638 98.8477 79.5726 97.6659 79.5726 97.6659L74.6255 94.0094L86.8183 89.9016Z" fill="#6C6D68" stroke="#CCCCCC" stroke-width="0.271738"/>
<path fill-rule="evenodd" clip-rule="evenodd" d="M94.1814 87.4471C94.1814 87.4471 90.6268 90.4421 92.0774 92.3794C92.8603 93.4249 95.5832 93.9905 95.5832 93.9905C95.5832 93.9905 94.2621 97.5256 95.1937 98.8241C96.3013 100.368 100.647 100.032 100.647 100.032C100.647 100.032 100.221 103.81 101.426 104.866C102.615 105.907 106.101 104.866 106.101 104.866C106.101 104.866 107.483 108.026 108.827 108.894C110.946 110.262 116.229 110.102 116.229 110.102L119.734 112.519L112.723 116.144C112.723 116.144 108.555 117.473 107.269 116.144C106.443 115.29 107.269 112.519 107.269 112.519C107.269 112.519 104.077 115.883 102.595 114.936C101.159 114.018 102.595 109.7 102.595 109.7C102.595 109.7 100.074 112.773 98.6995 112.116C97.2654 111.432 97.9204 107.283 97.9204 107.283C97.9204 107.283 92.8207 109.344 91.2983 107.686C90.4887 106.804 91.6878 104.06 91.6878 104.06C91.6878 104.06 86.7609 104.696 86.2344 102.852C85.9223 101.759 88.5716 100.435 88.5716 100.435C88.5716 100.435 83.2663 99.0395 83.1181 96.8101C83.036 95.5752 85.8448 94.3933 85.8448 94.3933L81.1704 92.7821L94.1814 87.4471Z" fill="#6C6D68" stroke="#CCCCCC" stroke-width="0.271738"/>
<path fill-rule="evenodd" clip-rule="evenodd" d="M100.59 85.129C100.59 85.129 97.1722 88.2603 98.6228 90.1976C99.4057 91.2432 102.129 91.8088 102.129 91.8088C102.129 91.8088 100.807 95.3439 101.739 96.6424C102.847 98.1863 107.193 97.8507 107.193 97.8507C107.193 97.8507 106.766 101.629 107.972 102.684C109.16 103.726 112.646 102.684 112.646 102.684C112.646 102.684 114.028 105.844 115.373 106.712C117.491 108.08 122.774 107.921 122.774 107.921L126.28 110.337L119.268 113.963C119.268 113.963 115.1 115.292 113.815 113.963C112.988 113.108 113.815 110.337 113.815 110.337C113.815 110.337 110.622 113.701 109.14 112.754C107.704 111.837 109.14 107.518 109.14 107.518C109.14 107.518 106.62 110.591 105.245 109.935C103.811 109.25 104.466 105.101 104.466 105.101C104.466 105.101 99.3661 107.162 97.8437 105.504C97.0341 104.622 98.2332 101.879 98.2332 101.879C98.2332 101.879 93.3063 102.514 92.7798 100.67C92.4677 99.5777 95.117 98.2535 95.117 98.2535C95.117 98.2535 89.8117 96.8577 89.6635 94.6284C89.5814 93.3934 92.3902 92.2116 92.3902 92.2116L87.7158 90.6004L100.59 85.129Z" fill="#6C6D68" stroke="#CCCCCC" stroke-width="0.271738"/>
<path fill-rule="evenodd" clip-rule="evenodd" d="M109.863 83.3564C109.863 83.3564 104.263 85.1241 105.714 87.0614C106.497 88.1069 109.219 88.6726 109.219 88.6726C109.219 88.6726 107.898 92.2077 108.83 93.5061C109.938 95.05 114.283 94.7145 114.283 94.7145C114.283 94.7145 113.857 98.4923 115.062 99.5481C116.251 100.589 119.737 99.5481 119.737 99.5481C119.737 99.5481 121.119 102.708 122.464 103.576C124.582 104.944 129.865 104.784 129.865 104.784L133.371 107.201L126.359 110.826C126.359 110.826 122.191 112.156 120.905 110.826C120.079 109.972 120.905 107.201 120.905 107.201C120.905 107.201 117.713 110.565 116.231 109.618C114.795 108.7 116.231 104.382 116.231 104.382C116.231 104.382 113.71 107.455 112.336 106.798C110.902 106.114 111.557 101.965 111.557 101.965C111.557 101.965 106.457 104.026 104.935 102.368C104.125 101.486 105.324 98.7425 105.324 98.7425C105.324 98.7425 100.397 99.3778 99.8706 97.5341C99.5585 96.4414 102.208 95.1173 102.208 95.1173C102.208 95.1173 96.9025 93.7215 96.7543 91.4921C96.6722 90.2572 99.4811 89.0754 99.4811 89.0754L94.8066 87.4642L109.863 83.3564Z" fill="#6C6D68" stroke="#CCCCCC" stroke-width="0.271738"/>
<path fill-rule="evenodd" clip-rule="evenodd" d="M119.135 83.22C119.135 83.22 111.49 82.9423 112.94 84.8796C113.723 85.9252 116.446 86.4908 116.446 86.4908C116.446 86.4908 115.125 90.0259 116.056 91.3244C117.164 92.8683 121.51 92.5328 121.51 92.5328C121.51 92.5328 121.084 96.3105 122.289 97.3663C123.478 98.4077 126.963 97.3663 126.963 97.3663C126.963 97.3663 128.346 100.526 129.69 101.394C131.808 102.763 137.091 102.603 137.091 102.603L140.597 105.019L133.585 108.645C133.585 108.645 129.417 109.974 128.132 108.645C127.306 107.79 128.132 105.019 128.132 105.019C128.132 105.019 124.939 108.383 123.458 107.436C122.022 106.519 123.458 102.2 123.458 102.2C123.458 102.2 120.937 105.273 119.562 104.617C118.128 103.932 118.783 99.7831 118.783 99.7831C118.783 99.7831 113.684 101.844 112.161 100.186C111.352 99.3042 112.551 96.5607 112.551 96.5607C112.551 96.5607 107.624 97.196 107.097 95.3523C106.785 94.2597 109.434 92.9356 109.434 92.9356C109.434 92.9356 104.129 91.5397 103.981 89.3104C103.899 88.0754 106.708 86.8936 106.708 86.8936L102.033 85.2824L119.135 83.22Z" fill="#6C6D68" stroke="#CCCCCC" stroke-width="0.271738"/>
<path fill-rule="evenodd" clip-rule="evenodd" d="M127.598 83.4663C127.598 83.4663 121.072 84.0359 122.395 85.6537C123.109 86.5268 125.046 84.8174 125.046 84.8174C125.046 84.8174 123.842 87.7695 124.691 88.8539C125.701 90.1432 129.664 89.863 129.664 89.863C129.664 89.863 129.276 93.0177 130.375 93.8994C131.459 94.7691 134.637 93.8994 134.637 93.8994C134.637 93.8994 135.898 96.538 137.124 97.2631C139.056 98.4057 143.873 98.2722 143.873 98.2722L147.07 100.29L140.676 103.318C140.676 103.318 136.875 104.428 135.703 103.318C134.95 102.604 135.703 100.29 135.703 100.29C135.703 100.29 132.792 103.1 131.44 102.309C130.131 101.542 131.44 97.9358 131.44 97.9358C131.44 97.9358 129.142 100.502 127.888 99.9541C126.58 99.3822 126.087 96.7358 126.087 96.7358C126.087 96.7358 122.527 97.6387 121.139 96.254C120.401 95.5177 121.494 93.2267 121.494 93.2267C121.494 93.2267 117.001 93.7572 116.521 92.2176C116.237 91.3051 118.653 90.1993 118.653 90.1993C118.653 90.1993 113.815 89.0337 113.679 87.172C113.605 86.1407 116.166 85.1538 116.166 85.1538L111.903 83.8083L127.598 83.4663Z" fill="#6C6D68" stroke="#CCCCCC" stroke-width="0.237134"/>
<path fill-rule="evenodd" clip-rule="evenodd" d="M165.187 74.7904L145.923 80.9834C145.944 81.2124 145.972 81.461 145.99 81.6776C146.146 83.6382 146.014 85.6904 145.216 87.5368C145.115 87.7712 144.992 88.0058 144.856 88.2364L165.046 126.509C165.133 126.43 165.224 126.354 165.307 126.272C167.427 124.196 169.277 121.891 170.716 119.436C173.007 115.529 174.391 111.273 175.738 107.066C176.423 104.93 177.13 102.766 177.284 100.556C177.474 97.8399 178.415 92.8899 177.591 90.2589C177.046 88.5224 177.128 85.2625 176.12 83.68C174.836 81.6633 175.613 82.4676 174.184 80.5206C172.907 78.7791 175.099 79.5206 169.55 73.7693C169.289 73.2339 169.544 74.2072 169.429 73.6334L165.187 74.7904Z" fill="white" stroke="black" stroke-width="0.243278"/>
<path fill-rule="evenodd" clip-rule="evenodd" d="M133.537 83.0238C133.537 83.0238 127.882 83.5112 129.028 84.8958C129.647 85.6431 131.326 84.1801 131.326 84.1801C131.326 84.1801 130.282 86.7066 131.018 87.6346C131.894 88.7381 135.328 88.4983 135.328 88.4983C135.328 88.4983 134.991 91.1983 135.943 91.9528C136.883 92.6971 139.637 91.9528 139.637 91.9528C139.637 91.9528 140.73 94.2111 141.792 94.8316C143.466 95.8095 147.64 95.6953 147.64 95.6953L150.411 97.4225L144.87 100.013C144.87 100.013 141.576 100.963 140.561 100.013C139.908 99.4028 140.561 97.4225 140.561 97.4225C140.561 97.4225 138.038 99.8267 136.867 99.1498C135.732 98.494 136.867 95.4074 136.867 95.4074C136.867 95.4074 134.875 97.6038 133.789 97.1347C132.655 96.6452 132.228 94.3803 132.228 94.3803C132.228 94.3803 129.143 95.1531 127.94 93.968C127.3 93.3378 128.248 91.3771 128.248 91.3771C128.248 91.3771 124.355 91.8311 123.939 90.5134C123.692 89.7325 125.786 88.7862 125.786 88.7862C125.786 88.7862 121.593 87.7886 121.476 86.1953C121.411 85.3126 123.631 84.468 123.631 84.468L119.937 83.3165L133.537 83.0238Z" fill="#6C6D68" stroke="#CCCCCC" stroke-width="0.204214"/>
<path fill-rule="evenodd" clip-rule="evenodd" d="M141.808 83.1407C141.808 83.1407 136.928 83.6101 137.917 84.9436C138.451 85.6633 139.9 84.2543 139.9 84.2543C139.9 84.2543 138.999 86.6876 139.634 87.5813C140.389 88.644 143.352 88.4131 143.352 88.4131C143.352 88.4131 143.062 91.0133 143.884 91.7401C144.694 92.4569 147.071 91.7401 147.071 91.7401C147.071 91.7401 148.013 93.9149 148.93 94.5126C150.374 95.4543 153.976 95.3443 153.976 95.3443L156.366 97.0078L151.585 99.503C151.585 99.503 148.744 100.418 147.867 99.503C147.304 98.9149 147.867 97.0078 147.867 97.0078C147.867 97.0078 145.691 99.3231 144.68 98.6713C143.701 98.0397 144.68 95.067 144.68 95.067C144.68 95.067 142.962 97.1824 142.024 96.7306C141.047 96.2592 140.678 94.0779 140.678 94.0779C140.678 94.0779 138.016 94.8221 136.978 93.6808C136.426 93.0739 137.244 91.1856 137.244 91.1856C137.244 91.1856 133.885 91.6228 133.526 90.3538C133.313 89.6018 135.119 88.6903 135.119 88.6903C135.119 88.6903 131.502 87.7296 131.401 86.1951C131.345 85.3451 133.26 84.5316 133.26 84.5316L130.073 83.4226L141.808 83.1407Z" fill="#6C6D68" stroke="#CCCCCC" stroke-width="0.186153"/>
<path fill-rule="evenodd" clip-rule="evenodd" d="M52.8791 107.169L35.9706 115.35L25.8801 118.759L20.9712 125.304L23.8347 125.85L23.0166 129.123L28.6073 130.486L26.971 132.395L32.9707 133.213L36.3797 133.35L48.2429 136.622L59.697 137.577L68.9694 138.668L82.878 131.986L84.5142 129.395L52.8791 107.169Z" fill="#808080"/>
<g filter="url(#filter0_f_1_1336)">
<path fill-rule="evenodd" clip-rule="evenodd" d="M55.061 108.532L21.7896 124.759L55.061 108.532Z" fill="#E6E6E6"/>
<path d="M55.061 108.532L21.7896 124.759" stroke="#E6E6E6" stroke-width="0.264583"/>
</g>
<g filter="url(#filter1_f_1_1336)">
<path fill-rule="evenodd" clip-rule="evenodd" d="M57.1062 110.305L24.1074 128.986L57.1062 110.305Z" fill="#E6E6E6"/>
<path d="M57.1062 110.305L24.1074 128.986" stroke="#E6E6E6" stroke-width="0.264583"/>
</g>
<g filter="url(#filter2_f_1_1336)">
<path fill-rule="evenodd" clip-rule="evenodd" d="M61.0605 113.032L28.6072 132.532H28.3345" fill="#E6E6E6"/>
<path d="M61.0605 113.032L28.6072 132.532H28.3345" stroke="#E6E6E6" stroke-width="0.264583"/>
</g>
<path fill-rule="evenodd" clip-rule="evenodd" d="M95.4915 159.347L85.8495 155.104L65.7942 153.176L46.1245 149.705L30.3116 144.691L20.2839 144.305L15.6558 135.434L50.7527 132.349L78.1359 131.578L86.6209 128.106L95.4915 159.347Z" fill="white"/>
<path fill-rule="evenodd" clip-rule="evenodd" d="M99.3485 163.589C99.3485 163.589 92.5372 154.897 88.1638 151.633C85.3993 149.57 81.1519 149.624 78.9074 147.005C76.7118 144.442 74.7728 140.57 75.822 137.363C76.3657 135.701 78.6167 135.258 80.0645 134.277C86.8567 129.677 100.891 121.164 100.891 121.164L121.718 112.294L140.231 105.351L144.859 94.1666L138.688 84.1389L167.614 73.7256L153.344 82.2105L164.914 79.8964L155.658 84.1389L165.3 81.8248L157.586 85.296L168.771 83.7533L159.129 86.8387L169.928 87.9957L162.214 89.5384L172.628 91.8525L162.986 91.4668L177.256 95.3236L162.986 93.3953L175.713 98.0234L163.371 95.3236L176.099 101.88L164.143 99.1804L175.327 108.437L166.071 125.792L155.658 137.363C155.658 137.363 137.243 147.865 129.432 151.247C125.62 152.898 117.319 153.372 114.004 155.875C111.152 158.029 107.448 164.36 107.448 164.36L99.3485 163.589Z" fill="#999999"/>
<path d="M173.592 10.0884C175.189 10.0884 176.484 8.7933 176.484 7.19576C176.484 5.59823 175.189 4.30316 173.592 4.30316C171.994 4.30316 170.699 5.59823 170.699 7.19576C170.699 8.7933 171.994 10.0884 173.592 10.0884Z" fill="url(#paint0_radial_1_1336)"/>
<defs>
<filter id="filter0_f_1_1336" x="21.2664" y="107.948" width="34.3178" height="17.3946" filterUnits="userSpaceOnUse" color-interpolation-filters="sRGB">
<feFlood flood-opacity="0" result="BackgroundImageFix"/>
<feBlend mode="normal" in="SourceGraphic" in2="BackgroundImageFix" result="shape"/>
<feGaussianBlur stdDeviation="0.232524" result="effect1_foregroundBlur_1_1336"/>
</filter>
<filter id="filter1_f_1_1336" x="23.5774" y="109.725" width="34.059" height="19.8415" filterUnits="userSpaceOnUse" color-interpolation-filters="sRGB">
<feFlood flood-opacity="0" result="BackgroundImageFix"/>
<feBlend mode="normal" in="SourceGraphic" in2="BackgroundImageFix" result="shape"/>
<feGaussianBlur stdDeviation="0.232524" result="effect1_foregroundBlur_1_1336"/>
</filter>
<filter id="filter2_f_1_1336" x="27.8694" y="112.454" width="33.724" height="20.675" filterUnits="userSpaceOnUse" color-interpolation-filters="sRGB">
<feFlood flood-opacity="0" result="BackgroundImageFix"/>
<feBlend mode="normal" in="SourceGraphic" in2="BackgroundImageFix" result="shape"/>
<feGaussianBlur stdDeviation="0.232524" result="effect1_foregroundBlur_1_1336"/>
</filter>
<radialGradient id="paint0_radial_1_1336" cx="0" cy="0" r="1" gradientUnits="userSpaceOnUse" gradientTransform="translate(173.592 7.19576) scale(2.89261 2.8926)">
<stop stop-color="white"/>
<stop offset="1" stop-color="white" stop-opacity="0"/>
</radialGradient>
</defs>
</svg>
