<svg width="213" height="375" viewBox="0 0 213 375" fill="none" xmlns="http://www.w3.org/2000/svg">
<path fill-rule="evenodd" clip-rule="evenodd" d="M178.557 12.4148C168.891 1.60476 149.431 -7.04424 138.111 13.3048C140.91 14.3228 146.632 12.1608 150.449 13.3048C153.248 14.3228 168 35.8178 170.417 33.4028C171.688 32.3848 174.232 31.2398 176.143 31.2398C175.124 31.2398 173.215 28.9498 173.215 28.3138C172.835 26.7888 176.143 24.3728 178.049 24.3728C174.487 21.8278 177.412 12.9248 184.154 17.3768L178.557 12.4148ZM162.786 40.1428C158.08 50.1918 163.679 81.6058 165.712 92.9258C168.511 107.553 171.308 118.492 176.014 130.956C170.545 132.483 148.669 134.644 144.98 141.131C146.379 132.992 148.669 123.071 147.652 115.439L136.204 24.4998V19.9198C142.944 27.8048 148.541 41.2878 162.786 40.1428ZM147.779 282.565L152.357 297.573C156.045 314.997 157.317 331.277 157.191 349.466C155.155 359.006 144.98 367.908 145.743 370.705C155.537 366.51 164.946 364.982 175.376 371.344C179.319 364.983 185.807 363.457 192.165 369.944C196.871 364.983 168.764 358.879 162.023 349.466C161.769 325.809 165.201 302.533 169.781 278.749L147.779 282.565ZM67.9025 278.621C70.1915 303.041 74.8985 324.281 74.8985 351.756C72.9905 363.072 56.8375 368.673 61.4155 373.251C70.8285 367.272 82.9105 368.418 91.3045 374.521C96.1375 364.857 112.928 367.656 116.998 372.869C121.066 364.601 87.2345 363.073 79.7295 351.502C77.8225 329.624 82.6555 316.905 84.0545 299.607L89.6505 283.455L67.9025 278.621Z" fill="black" stroke="black" stroke-width="0.216" stroke-miterlimit="2.4142" stroke-linecap="round" stroke-linejoin="round"/>
<path fill-rule="evenodd" clip-rule="evenodd" d="M150.956 13.3048C151.594 12.2888 140.146 14.0698 138.493 13.4328C137.22 13.0518 135.696 19.4108 136.33 20.1748C139.763 23.8628 143.326 30.9868 147.268 34.0378C150.194 37.7268 156.807 40.9058 162.787 40.2708C164.185 37.8538 166.982 35.0558 169.908 33.6558C165.965 32.2578 159.479 22.7178 154.647 17.3758L150.956 13.3048ZM176.012 131.084C177.667 135.281 178.685 137.951 179.828 141.259L190.512 172.675C193.31 181.069 200.942 188.19 203.613 195.06C205.902 200.784 208.192 210.831 206.539 216.427C199.798 232.197 184.661 250.131 178.938 267.047C177.92 269.209 172.324 277.094 170.417 278.239C166.601 280.528 160.879 279.384 156.173 280.528C139 284.979 119.413 285.871 116.107 285.871C100.209 286.125 76.2975 282.69 63.5795 276.968C59.5085 276.713 60.7815 276.204 52.8955 275.695C45.5185 273.533 43.6105 273.153 38.7775 271.244C28.7295 267.429 26.0585 266.792 22.4975 265.776C12.4495 263.232 -7.00951 275.695 4.56349 264.758C9.39749 260.179 16.2645 257.888 20.8435 252.292C23.6415 248.985 27.9655 246.824 28.8565 244.535C38.3955 222.024 62.5605 219.607 70.5735 201.038C76.8055 186.157 98.0475 179.543 108.348 173.946L133.912 165.297C140.398 163.136 141.035 149.273 145.614 139.479C149.174 132.228 171.816 115.439 176.012 131.084Z" fill="white" stroke="black" stroke-width="0.216" stroke-miterlimit="2.4142" stroke-linecap="round" stroke-linejoin="round"/>
<path fill-rule="evenodd" clip-rule="evenodd" d="M165.586 30.4768L146.125 33.2748C150.449 37.5998 155.283 40.7798 162.66 40.1428C164.439 37.8538 166.601 35.1828 169.653 33.6558C168.129 32.7658 166.855 31.7478 165.586 30.4768ZM212.136 31.2388C212.136 24.7518 193.311 27.5508 185.551 18.9028C180.338 13.0508 177.54 17.6298 176.904 19.2838C175.633 21.0638 177.157 24.2428 178.049 24.2428C175.633 24.8798 169.653 27.4228 175.761 31.2388C184.918 29.0768 192.04 28.8218 209.338 33.4018C211.627 34.1648 212.136 31.2388 212.136 31.2388Z" fill="#D9D9D9"/>
<path fill-rule="evenodd" clip-rule="evenodd" d="M162.659 11.1428C164.82 11.1428 166.6 12.4138 166.6 14.0688C166.6 15.7218 164.82 17.1208 162.659 17.1208C160.495 17.1208 158.716 15.7218 158.716 14.0688C158.715 12.4148 160.495 11.1428 162.659 11.1428ZM210.226 28.3138C208.574 27.5518 209.971 29.2048 208.063 29.2048C207.429 29.2048 208.192 29.0788 207.429 29.2048L204.503 29.9688C205.012 30.9868 204.886 31.2398 205.901 31.2398C206.029 31.2398 206.919 31.3678 207.045 31.4948C208.191 32.0018 210.608 32.5108 210.608 32.2578C210.608 31.7488 211.373 31.6208 211.752 31.3678C211.499 30.7308 211.88 29.8408 211.626 29.4588C211.117 28.8228 210.355 28.3138 210.226 28.3138ZM179.955 21.4458C179.448 18.7758 179.064 19.5378 180.719 18.7758C181.229 18.5208 182.245 18.3948 182.754 18.7758C182.627 19.0298 183.644 19.2848 183.518 19.6668C183.392 19.9198 183.644 21.1928 184.026 20.6838C184.536 20.0478 185.551 21.3188 185.807 21.9548C185.807 21.9548 185.044 22.4638 184.788 22.9728C184.407 24.1168 186.061 24.2438 186.697 24.4988L189.367 25.0058C189.623 25.1328 190.131 25.0058 190.513 25.0058C190.768 25.1328 191.276 25.5148 191.531 25.5148C191.531 25.6418 191.531 25.7698 191.531 25.8978C189.879 25.8978 188.096 25.7698 186.444 25.2608C185.173 24.8798 182.246 25.6418 181.61 23.7348C181.356 23.0998 181.101 23.0998 180.593 22.7168L179.955 21.4458Z" fill="white"/>
<path fill-rule="evenodd" clip-rule="evenodd" d="M174.232 30.3488L175.631 31.2388C180.337 30.2208 184.406 29.5858 190.385 29.7118C197.254 30.3488 203.104 31.8758 209.971 33.5278L210.862 33.4018C211.626 32.7658 211.88 32.1288 212.262 31.4938C212.135 30.3478 211.879 29.7118 211.372 29.0768C211.879 30.3478 211.879 31.3668 211.372 31.8748C210.988 32.3838 210.481 32.7648 209.718 32.2558C203.486 30.4748 193.566 28.8208 190.385 28.4398C184.787 28.5668 177.156 30.4748 173.468 29.0758L174.232 30.3488Z" fill="black" stroke="black" stroke-width="0.216" stroke-miterlimit="2.4142" stroke-linecap="round" stroke-linejoin="round"/>
<path fill-rule="evenodd" clip-rule="evenodd" d="M143.073 147.363C140.91 154.359 140.529 155.249 137.602 161.735C136.076 165.678 129.081 166.06 126.156 167.332C119.543 170.385 112.293 170.385 106.058 175.089C107.966 211.466 141.799 226.599 158.206 229.78L156.68 224.056C154.773 224.056 154.773 221.894 152.992 221.004C150.701 220.114 150.066 218.462 148.668 216.681C148.285 215.789 143.835 211.084 143.835 210.193C141.671 203.58 139 200.655 137.982 194.168C137.601 190.605 141.292 180.303 141.925 176.87C142.688 171.655 141.417 175.216 143.324 170C144.342 166.949 145.359 162.879 144.342 159.317C142.944 154.992 146.76 150.032 144.852 146.598C143.073 143.039 143.452 144.31 143.073 147.363Z" fill="#E5DDBF"/>
<path fill-rule="evenodd" clip-rule="evenodd" d="M106.058 175.089C111.782 208.922 132.642 225.457 163.678 230.926C150.956 238.175 143.073 246.061 129.461 251.91C116.616 257.253 99.9527 260.686 89.5237 259.161C77.6947 256.744 71.0817 242.245 61.1597 242.372C63.1957 242.245 64.9757 242.881 66.6297 243.643C78.2037 232.451 100.716 211.848 101.225 209.939C100.589 206.504 94.2297 202.944 87.4887 203.707C87.9987 195.949 99.5717 182.086 94.2297 180.687C97.6647 178.906 101.226 177.507 106.058 175.089Z" fill="#997F54"/>
<path fill-rule="evenodd" clip-rule="evenodd" d="M87.4896 203.708C92.3226 202.818 100.082 205.744 101.226 209.687C101.607 211.211 89.3966 221.895 84.9466 226.093C81.1306 229.781 68.9206 241.355 66.2496 244.025C63.9596 246.57 58.8726 248.222 57.3466 256.489C57.0916 258.143 50.8586 256.744 47.6796 259.415C44.5006 262.085 41.8286 260.179 36.1056 263.74C30.5086 267.428 31.2726 260.433 30.5086 260.052C26.9476 258.271 10.9216 267.809 3.67264 268.446C-1.79636 268.446 8.88764 261.832 11.5586 260.305C17.0266 257.507 25.0406 246.696 27.2026 245.552C29.3646 244.153 25.9306 250.893 30.3816 241.227C32.2896 236.648 41.1936 228.636 42.7186 227.238C50.4776 219.733 60.1436 216.426 67.1386 206.886C71.5906 200.909 73.6256 191.751 83.1636 186.665L94.3566 180.687C99.5716 182.34 88.6346 194.678 87.4896 203.708Z" fill="#37223E"/>
<path fill-rule="evenodd" clip-rule="evenodd" d="M79.3495 188.827C71.7185 206.124 98.8095 212.485 100.971 212.358C111.654 211.467 98.0474 188.446 101.481 177.89C102.116 175.726 83.1645 187.046 79.3495 188.827Z" fill="#674C49"/>
<path fill-rule="evenodd" clip-rule="evenodd" d="M57.6006 259.796C56.5826 268.699 61.6696 275.441 67.9026 278.748L70.1916 298.335C71.4626 299.226 72.9896 296.681 74.1346 301.006L75.6606 299.098L78.4576 302.277L81.5106 297.955L83.4186 301.643L83.9276 299.736L89.5236 283.837C108.602 286.764 124.375 286.636 147.778 282.692L152.229 296.937C153.627 298.336 155.282 296.81 156.425 299.099L157.824 296.81L161.131 299.48L163.293 294.521L165.837 297.574L166.981 293.631L169.78 279.131C176.649 272.39 180.338 265.523 184.661 254.076C190.893 243.773 196.492 236.778 203.357 223.043C204.886 219.863 201.45 220.753 198.779 222.025C192.929 223.043 188.095 223.424 185.172 231.056C183.392 235.123 180.973 238.812 177.54 239.957C173.596 240.975 177.412 233.598 176.394 230.29C174.742 225.204 172.45 226.857 168.636 228.385C150.193 236.65 142.307 249.751 115.216 256.746C87.7426 262.47 85.8346 259.036 75.2786 250.641C71.2076 247.08 67.2646 242.374 61.0326 242.374C59.8896 248.222 57.4726 253.818 57.6006 259.796Z" fill="#674C49"/>
<path fill-rule="evenodd" clip-rule="evenodd" d="M188.096 23.3538C184.155 21.4458 185.172 24.8798 188.096 23.3538V23.3538ZM163.295 11.1428C164.947 11.1428 166.349 12.4138 166.349 13.9408C166.349 15.4668 164.948 16.7388 163.295 16.7388C161.642 16.7388 160.243 15.4668 160.243 13.9408C160.243 12.4148 161.642 11.1428 163.295 11.1428ZM162.023 12.5428C162.276 12.5428 162.66 12.7978 162.66 13.0518C162.66 13.3058 162.276 13.4328 162.023 13.4328C161.642 13.4328 161.258 13.3048 161.258 13.0518C161.258 12.7988 161.642 12.5428 162.023 12.5428Z" fill="black" stroke="black" stroke-width="0.216" stroke-miterlimit="2.4142" stroke-linecap="round" stroke-linejoin="round"/>
</svg>
