<svg width="61" height="61" viewBox="0 0 61 61" fill="none" xmlns="http://www.w3.org/2000/svg">
<path d="M58.7383 20.156C64.5697 35.706 56.7208 53.0281 41.2072 58.8458C25.6937 64.6635 8.39013 56.7739 2.55871 41.2238C-3.2727 25.6737 4.57623 8.35168 20.0898 2.53396C35.6034 -3.28377 52.9069 4.60587 58.7383 20.156Z" fill="url(#paint0_linear_16_126)"/>
<path d="M58.7383 20.156C64.5697 35.706 56.7208 53.0281 41.2072 58.8458C25.6937 64.6635 8.39013 56.7739 2.55871 41.2238C-3.2727 25.6737 4.57623 8.35168 20.0898 2.53396C35.6034 -3.28377 52.9069 4.60587 58.7383 20.156Z" fill="url(#paint1_linear_16_126)"/>
<defs>
<linearGradient id="paint0_linear_16_126" x1="24.994" y1="22.7286" x2="79.0869" y2="47.2391" gradientUnits="userSpaceOnUse">
<stop stop-color="#FAA3BD" stop-opacity="0.996875"/>
<stop offset="1" stop-color="white" stop-opacity="0"/>
</linearGradient>
<linearGradient id="paint1_linear_16_126" x1="24.994" y1="22.7286" x2="79.0869" y2="47.2391" gradientUnits="userSpaceOnUse">
<stop stop-color="#FAA3BD" stop-opacity="0.996875"/>
<stop offset="1" stop-color="white" stop-opacity="0"/>
</linearGradient>
</defs>
</svg>
