<svg width="170" height="171" viewBox="0 0 170 171" fill="none" xmlns="http://www.w3.org/2000/svg">
<path d="M121.001 8.48129C163.185 28.0771 181.35 78.4763 161.573 121.051C141.795 163.626 91.5657 182.254 49.3814 162.659C7.19712 143.063 -10.9674 92.6635 8.80982 50.0886C28.587 7.51375 78.8168 -11.1145 121.001 8.48129Z" fill="url(#paint0_linear_1_114)" fill-opacity="0.7"/>
<path d="M121.001 8.48129C163.185 28.0771 181.35 78.4763 161.573 121.051C141.795 163.626 91.5657 182.254 49.3814 162.659C7.19712 143.063 -10.9674 92.6635 8.80982 50.0886C28.587 7.51375 78.8168 -11.1145 121.001 8.48129Z" fill="url(#paint1_linear_1_114)" fill-opacity="0.7"/>
<defs>
<linearGradient id="paint0_linear_1_114" x1="58.2304" y1="80.8532" x2="215.61" y2="24.1316" gradientUnits="userSpaceOnUse">
<stop stop-color="#91F1AC" stop-opacity="0.996875"/>
<stop offset="1" stop-color="white" stop-opacity="0"/>
</linearGradient>
<linearGradient id="paint1_linear_1_114" x1="58.2304" y1="80.8532" x2="215.61" y2="24.1316" gradientUnits="userSpaceOnUse">
<stop stop-color="#91F1AC" stop-opacity="0.996875"/>
<stop offset="1" stop-color="white" stop-opacity="0"/>
</linearGradient>
</defs>
</svg>
