<svg width="239" height="140" viewBox="0 0 239 140" fill="none" xmlns="http://www.w3.org/2000/svg">
<path d="M232.541 11.7103C233.757 14.0624 233.716 18.1804 230.097 24.7842C226.581 31.2 220.266 38.8257 211.395 47.1617C193.706 63.7851 166.713 82.4366 134.597 99.0328C102.481 115.629 71.6517 126.857 47.8591 131.669C35.928 134.083 26.0547 134.822 18.7873 133.979C11.307 133.111 7.92465 130.762 6.7092 128.409C5.49375 126.057 5.53404 121.939 9.15329 115.335C12.6694 108.92 18.9843 101.294 27.8548 92.958C45.5441 76.3346 72.5369 57.6831 104.653 41.0869C136.77 24.4907 167.599 13.2627 191.391 8.45024C203.322 6.03699 213.196 5.2974 220.463 6.14075C227.943 7.00883 231.326 9.3582 232.541 11.7103Z" stroke="#A1CCF2" stroke-width="10"/>
</svg>
